<svg xmlns="http://www.w3.org/2000/svg" width="180" height="180" viewBox="0 0 180 180">
  <rect width="180" height="180" fill="#1e40af" rx="40" ry="40"/>
  <path d="M90 40 C 60 40, 40 60, 40 90 C 40 120, 60 140, 90 140 C 120 140, 140 120, 140 90 C 140 60, 120 40, 90 40 Z M 90 55 C 112 55, 125 70, 125 90 C 125 110, 112 125, 90 125 C 68 125, 55 110, 55 90 C 55 70, 68 55, 90 55 Z" fill="white"/>
  <circle cx="75" cy="80" r="8" fill="white"/>
  <circle cx="105" cy="80" r="8" fill="white"/>
  <path d="M70 105 Q 90 120, 110 105" stroke="white" stroke-width="6" fill="none"/>
</svg>